<svg width="19" height="17" viewBox="0 0 19 17" fill="none" xmlns="http://www.w3.org/2000/svg">
<path d="M18.3524 6.53695L11.5197 0.482877C10.9702 0.0479877 10.2071 -0.106413 9.49881 0.0740268C8.79057 0.254372 8.23662 0.744437 8.03205 1.37152C7.82733 1.99861 8.00069 2.6748 8.49096 3.16215L11.7215 6.02894H2.14166C1.37658 6.02894 0.669441 6.39048 0.286918 6.97746C-0.0956395 7.56442 -0.0956395 8.28754 0.286918 8.87449C0.669476 9.46144 1.37658 9.82314 2.14166 9.82314H11.7536L8.49103 12.7182C8.05135 13.0663 7.79284 13.5593 7.77654 14.0815C7.76009 14.6036 7.98725 15.1086 8.40451 15.4777C8.82175 15.8468 9.39232 16.0474 9.98166 16.0322C10.5711 16.017 11.1275 15.7874 11.5198 15.3975L18.3525 9.34373V9.3436C18.755 8.98835 18.9807 8.50555 18.9799 8.00231V7.94034C19.0004 7.41561 18.7731 6.90703 18.3525 6.53708L18.3524 6.53695Z" fill="#8A8A8A"/>
</svg>
