<svg width="68" height="65" viewBox="0 0 68 65" fill="none" xmlns="http://www.w3.org/2000/svg">
<path d="M65.2278 26.617L41.151 2.53268C39.2148 0.802599 36.5256 0.188359 34.0299 0.906188C31.5343 1.62364 29.5823 3.57322 28.8614 6.06789C28.1401 8.56257 28.7509 11.2526 30.4785 13.1914L41.8621 24.596H8.10525C5.40931 24.596 2.91753 26.0343 1.56962 28.3695C0.221585 30.7045 0.221585 33.5812 1.56962 35.9162C2.91765 38.2513 5.40931 39.6902 8.10525 39.6902H41.9752L30.4788 51.2073C28.9295 52.5921 28.0185 54.5534 27.9611 56.6307C27.9031 58.7079 28.7036 60.7169 30.1739 62.1853C31.6441 63.6536 33.6547 64.4515 35.7313 64.3912C37.8085 64.3308 39.7689 63.4174 41.1513 61.8661L65.2281 37.783V37.7825C66.6463 36.3692 67.4418 34.4485 67.4389 32.4465V32.2C67.5111 30.1125 66.7101 28.0893 65.2281 26.6176L65.2278 26.617Z" fill="white"/>
</svg>
