<svg width="101" height="33" viewBox="0 0 101 33" fill="none" xmlns="http://www.w3.org/2000/svg">
<path d="M1.3263 22.9788C1.99592 22.9788 2.63039 23.0013 3.23066 23.0444C3.25933 23.0464 3.28892 23.0474 3.3176 23.0474C4.01034 23.0474 4.59394 22.4511 4.63926 21.6734C4.68735 20.864 4.13335 20.1652 3.40174 20.112C2.74601 20.0659 2.05511 20.0413 1.3263 20.0413C0.593776 20.0413 0 20.699 0 21.5105C0 22.321 0.592853 22.9788 1.3263 22.9788L1.3263 22.9788Z" fill="#757575"/>
<path d="M52.0531 23.0341C52.7301 23.0976 53.3405 22.4671 53.3825 21.6585C53.4246 20.8499 52.8973 20.1539 52.2055 20.1047C51.6231 20.0628 51.0127 20.0413 50.3699 20.0413C49.6107 20.0443 48.9977 20.0668 48.368 20.116C47.6753 20.1702 47.1533 20.8693 47.198 21.6779C47.2435 22.4527 47.7952 23.0474 48.4494 23.0474C48.4774 23.0474 48.5055 23.0464 48.5344 23.0444C49.1045 23.0004 49.7052 22.9768 50.3419 22.9768C50.9698 22.9666 51.5119 22.9973 52.0531 23.0341H52.0531Z" fill="#757575"/>
<path d="M60.5791 26.0536C61.0575 26.0536 61.5194 25.7317 61.7521 25.1723C62.0802 24.3777 61.8227 23.4063 61.1757 23.0022C59.8579 22.1783 58.6575 21.5784 57.3965 21.1135C56.7 20.8524 55.9687 21.3432 55.7606 22.1963C55.5526 23.0495 55.9467 23.9499 56.6422 24.2055C57.7484 24.6129 58.8105 25.1442 59.9854 25.8781C60.1751 25.9974 60.3785 26.0536 60.5792 26.0536L60.5791 26.0536Z" fill="#757575"/>
<path d="M12.2504 25.183C12.5419 24.3952 12.3202 23.4272 11.755 23.0221C10.594 22.1895 9.54535 21.5829 8.45266 21.1152C7.84326 20.8533 7.20173 21.33 7.01384 22.176C6.82756 23.0232 7.168 23.9207 7.7758 24.1814C8.73449 24.5932 9.66426 25.1315 10.7007 25.8757C10.8693 25.9966 11.0492 26.0536 11.2266 26.0536C11.6433 26.0525 12.0464 25.7358 12.2504 25.183H12.2504Z" fill="#757575"/>
<path d="M67.706 31.064C68.1965 31.064 68.6508 30.6271 68.806 29.9439C68.9965 29.1025 68.6596 28.2053 68.0517 27.9401C67.0949 27.5233 66.1653 26.9816 65.1273 26.2338C64.5612 25.827 63.8641 26.1323 63.573 26.9158C63.2803 27.6993 63.4998 28.6645 64.0651 29.0701C65.2254 29.9049 66.2724 30.5145 67.3611 30.9882C67.4752 31.0395 67.5926 31.064 67.706 31.064L67.706 31.064Z" fill="#757575"/>
<path d="M20.0647 29.9236C20.25 29.0747 19.9082 28.1765 19.3007 27.9175C18.337 27.507 17.4077 26.971 16.3742 26.2309C15.8117 25.8261 15.1159 26.1379 14.8262 26.9273C14.5366 27.7167 14.7588 28.6867 15.3254 29.0915C16.4825 29.9213 17.5329 30.5257 18.6291 30.9933C18.7414 31.0416 18.8538 31.064 18.9653 31.064C19.458 31.0629 19.9146 30.6166 20.0647 29.9236V29.9236Z" fill="#757575"/>
<path d="M72.3493 31.9843C73.0035 32.0374 73.6963 32.066 74.4321 32.066C75.0461 32.066 75.6303 32.0466 76.1864 32.0099C76.8784 31.9629 77.4074 31.2711 77.3671 30.4629C77.3277 29.6558 76.7181 29.0356 76.0419 29.0846C74.9208 29.1602 73.6264 29.1531 72.5227 29.0621C71.829 29.0182 71.2317 29.6139 71.1827 30.4221C71.1354 31.2292 71.6574 31.9291 72.3493 31.9843L72.3493 31.9843Z" fill="#757575"/>
<path d="M88.7471 26.0536C88.953 26.0536 89.1616 25.9947 89.3556 25.8725C90.547 25.1211 91.6088 24.5754 92.6981 24.1564C93.3922 23.8896 93.7756 22.9927 93.5549 22.1546C93.3334 21.3155 92.5906 20.852 91.9002 21.1187C90.6619 21.5945 89.4668 22.2069 88.1357 23.0471C87.4913 23.4539 87.2412 24.4164 87.5768 25.1967C87.8121 25.7424 88.2718 26.0536 88.7471 26.0536V26.0536Z" fill="#757575"/>
<path d="M36.9919 26.9298C36.6617 26.1379 35.8655 25.825 35.2225 26.2322C34.0438 26.9713 32.9815 27.5052 31.88 27.9168C31.1856 28.1747 30.7939 29.0731 31.004 29.9233C31.1773 30.6176 31.6983 31.064 32.2625 31.064C32.3881 31.064 32.5184 31.0415 32.645 30.9933C33.9008 30.5267 35.1005 29.9233 36.4214 29.0956C37.0672 28.6896 37.3231 27.7194 36.992 26.9298L36.9919 26.9298Z" fill="#757575"/>
<path d="M81.0043 31.064C81.127 31.064 81.2515 31.0414 81.376 30.9974C82.6447 30.5355 83.8485 29.9371 85.1602 29.1174C85.8073 28.7143 86.0664 27.741 85.7396 26.9427C85.4119 26.1455 84.6219 25.8226 83.9766 26.2302C82.8076 26.9585 81.7457 27.4881 80.6325 27.8934C79.9368 28.1475 79.5404 29.0474 79.7454 29.9055C79.9148 30.6078 80.4375 31.064 81.0041 31.064L81.0043 31.064Z" fill="#757575"/>
<path d="M44.8158 22.1744C44.6009 21.329 43.8682 20.8515 43.1693 21.1166C41.9214 21.5862 40.7231 22.1923 39.3989 23.0254C38.7525 23.4314 38.499 24.3975 38.8323 25.1848C39.0665 25.7372 39.5266 26.0536 40.0031 26.0536C40.2061 26.0536 40.4118 25.9966 40.6046 25.8747C41.7883 25.1322 42.8516 24.5932 43.9481 24.1795C44.6423 23.9178 45.0308 23.0198 44.8159 22.1745L44.8158 22.1744Z" fill="#757575"/>
<path d="M28.6244 30.4383C28.5807 29.6274 27.9756 29.0052 27.2918 29.0636C26.1789 29.1456 24.883 29.1456 23.7727 29.0636C23.0976 29.0073 22.483 29.6274 22.44 30.4383C22.3963 31.248 22.9216 31.9461 23.6134 31.9974C24.221 32.0425 24.8602 32.066 25.5353 32.066C26.2087 32.066 26.8444 32.0425 27.4512 31.9974C28.1429 31.9451 28.6683 31.247 28.6245 30.4383H28.6244Z" fill="#757575"/>
<path d="M99.2534 20.0413C98.5246 20.0413 97.8327 20.0659 97.1779 20.113C96.4463 20.1662 95.8923 20.8648 95.9404 21.6739C95.9857 22.4503 96.5693 23.0474 97.2621 23.0474C97.2907 23.0474 97.3203 23.0464 97.349 23.0444C97.9502 23.0003 98.5847 22.9778 99.2534 22.9778C99.9859 22.9778 100.58 22.3202 100.58 21.509C100.58 20.6988 99.9868 20.0413 99.2534 20.0413L99.2534 20.0413Z" fill="#757575"/>
<path d="M1.3263 2.93753C1.99592 2.93753 2.63039 2.96007 3.23066 3.0031C3.25933 3.00515 3.28892 3.00618 3.3176 3.00618C4.01034 3.00618 4.59394 2.40987 4.63926 1.63218C4.68735 0.822758 4.13335 0.12397 3.40174 0.0706976C2.74601 0.0245908 2.05511 0 1.3263 0C0.593776 0 0 0.65779 0 1.46929C0 2.27974 0.592853 2.93755 1.3263 2.93755L1.3263 2.93753Z" fill="#757575"/>
<path d="M52.0531 2.99287C52.7301 3.05633 53.3405 2.42581 53.3825 1.61721C53.4246 0.808617 52.8973 0.112591 52.2055 0.0634603C51.6231 0.0214936 51.0127 0 50.3699 0C49.6107 0.00307073 48.9977 0.0255878 48.368 0.0747194C47.6753 0.128967 47.1533 0.828057 47.198 1.63665C47.2435 2.41148 47.7952 3.00618 48.4494 3.00618C48.4774 3.00618 48.5055 3.00515 48.5344 3.00311C49.1045 2.95909 49.7052 2.93555 50.3419 2.93555C50.9698 2.92532 51.5119 2.95602 52.0531 2.99287H52.0531Z" fill="#757575"/>
<path d="M60.5791 6.01233C61.0575 6.01233 61.5194 5.69042 61.7521 5.13102C62.0802 4.33637 61.8227 3.36501 61.1757 2.96094C59.8579 2.13703 58.6575 1.53712 57.3965 1.07225C56.7 0.811125 55.9687 1.30187 55.7606 2.15503C55.5526 3.0082 55.9467 3.90865 56.6422 4.16418C57.7484 4.57164 58.8105 5.10289 59.9854 5.83676C60.1751 5.95607 60.3785 6.01235 60.5792 6.01235L60.5791 6.01233Z" fill="#757575"/>
<path d="M12.2504 5.1417C12.5419 4.35387 12.3202 3.38588 11.755 2.98076C10.594 2.14819 9.54535 1.54165 8.45266 1.07388C7.84326 0.812022 7.20173 1.28874 7.01384 2.13476C6.82756 2.98188 7.168 3.87938 7.7758 4.14013C8.73449 4.55195 9.66426 5.09022 10.7007 5.83442C10.8693 5.95528 11.0492 6.01235 11.2266 6.01235C11.6433 6.01123 12.0464 5.69453 12.2504 5.1417H12.2504Z" fill="#757575"/>
<path d="M67.706 11.0227C68.1965 11.0227 68.6508 10.5858 68.806 9.90263C68.9965 9.0612 68.6596 8.16401 68.0517 7.89879C67.0949 7.48199 66.1653 6.94033 65.1273 6.19251C64.5612 5.78572 63.8641 6.09109 63.573 6.87456C63.2803 7.65805 63.4998 8.62319 64.0651 9.02887C65.2254 9.86362 66.2724 10.4732 67.3611 10.9469C67.4752 10.9982 67.5926 11.0227 67.706 11.0227L67.706 11.0227Z" fill="#757575"/>
<path d="M20.0647 9.88228C20.25 9.03343 19.9082 8.13523 19.3007 7.87619C18.337 7.46577 17.4077 6.92977 16.3742 6.18969C15.8117 5.78487 15.1159 6.09662 14.8262 6.88605C14.5366 7.67548 14.7588 8.64543 15.3254 9.05025C16.4825 9.88004 17.5329 10.4844 18.6291 10.952C18.7414 11.0003 18.8538 11.0227 18.9653 11.0227C19.458 11.0216 19.9146 10.5753 20.0647 9.88228V9.88228Z" fill="#757575"/>
<path d="M72.3493 11.943C73.0035 11.9961 73.6963 12.0248 74.4321 12.0248C75.0461 12.0248 75.6303 12.0053 76.1864 11.9686C76.8784 11.9216 77.4074 11.2299 77.3671 10.4216C77.3277 9.61447 76.7181 8.99427 76.0419 9.04331C74.9208 9.11892 73.6264 9.11177 72.5227 9.02084C71.829 8.9769 71.2317 9.57258 71.1827 10.3808C71.1354 11.1879 71.6574 11.8878 72.3493 11.943L72.3493 11.943Z" fill="#757575"/>
<path d="M88.7471 6.01235C88.953 6.01235 89.1616 5.95344 89.3556 5.83118C90.547 5.07983 91.6088 4.5341 92.6981 4.11509C93.3922 3.84834 93.7756 2.95139 93.5549 2.11332C93.3334 1.27417 92.5906 0.810694 91.9002 1.07745C90.6619 1.55316 89.4668 2.16557 88.1357 3.00583C87.4913 3.41263 87.2412 4.37515 87.5768 5.15541C87.8121 5.70115 88.2718 6.01234 88.7471 6.01234V6.01235Z" fill="#757575"/>
<path d="M36.9919 6.88851C36.6617 6.09668 35.8655 5.78375 35.2225 6.19089C34.0438 6.93001 32.9815 7.46388 31.88 7.87551C31.1856 8.13347 30.7939 9.03185 31.004 9.88202C31.1773 10.5763 31.6983 11.0227 32.2625 11.0227C32.3881 11.0227 32.5184 11.0003 32.645 10.952C33.9008 10.4855 35.1005 9.88203 36.4214 9.05431C37.0672 8.64828 37.3231 7.67812 36.992 6.88852L36.9919 6.88851Z" fill="#757575"/>
<path d="M81.0043 11.0227C81.127 11.0227 81.2515 11.0001 81.376 10.9561C82.6447 10.4942 83.8485 9.89581 85.1602 9.07609C85.8073 8.673 86.0664 7.6997 85.7396 6.90142C85.4119 6.10427 84.6219 5.78133 83.9766 6.18896C82.8076 6.91723 81.7457 7.4468 80.6325 7.85214C79.9368 8.1062 79.5404 9.00611 79.7454 9.86422C79.9148 10.5665 80.4375 11.0227 81.0041 11.0227L81.0043 11.0227Z" fill="#757575"/>
<path d="M44.8158 2.13314C44.6009 1.28775 43.8682 0.81025 43.1693 1.07528C41.9214 1.54493 40.7231 2.15103 39.3989 2.98413C38.7525 3.39006 38.499 4.35622 38.8323 5.14346C39.0665 5.69588 39.5266 6.01235 40.0031 6.01235C40.2061 6.01235 40.4118 5.95532 40.6046 5.83343C41.7883 5.0909 42.8516 4.55192 43.9481 4.13817C44.6423 3.8765 45.0308 2.97855 44.8159 2.13316L44.8158 2.13314Z" fill="#757575"/>
<path d="M28.6244 10.397C28.5807 9.58615 27.9756 8.96394 27.2918 9.02235C26.1789 9.10436 24.883 9.10436 23.7727 9.02235C23.0976 8.96598 22.483 9.58612 22.44 10.397C22.3963 11.2068 22.9216 11.9048 23.6134 11.9561C24.221 12.0012 24.8602 12.0248 25.5353 12.0248C26.2087 12.0248 26.8444 12.0012 27.4512 11.9561C28.1429 11.9038 28.6683 11.2057 28.6245 10.397H28.6244Z" fill="#757575"/>
<path d="M99.2534 2.40057e-05C98.5246 2.40057e-05 97.8327 0.0246052 97.1779 0.071721C96.4463 0.12498 95.8923 0.823517 95.9404 1.63266C95.9857 2.40903 96.5693 3.00618 97.2621 3.00618C97.2907 3.00618 97.3203 3.00515 97.349 3.0031C97.9502 2.95906 98.5847 2.93653 99.2534 2.93653C99.9859 2.93653 100.58 2.27896 100.58 1.46775C100.58 0.657583 99.9868 0 99.2534 0L99.2534 2.40057e-05Z" fill="#757575"/>
</svg>
