<svg width="107" height="93" viewBox="0 0 107 93" fill="none" xmlns="http://www.w3.org/2000/svg">
<path d="M54.246 53.7386C53.6898 53.7386 53.1345 53.5268 52.7102 53.1025L38.2764 38.6688C37.4286 37.821 37.4286 36.4458 38.2764 35.5971C39.1242 34.7485 40.4994 34.7493 41.3481 35.5971L54.2459 48.4949L56.9282 45.8118L39.869 28.7525L35.6509 32.9706C34.8031 33.8184 33.4279 33.8184 32.5792 32.9706C31.7314 32.1228 31.7314 30.7476 32.5792 29.8989L38.3332 24.1449C38.7404 23.7377 39.2927 23.5089 39.869 23.5089C40.4454 23.5089 40.9976 23.7377 41.4049 24.1449L61.536 44.2761C62.3838 45.1239 62.3838 46.4991 61.536 47.3478L55.782 53.1018C55.3577 53.5268 54.8016 53.7386 54.2462 53.7386L54.246 53.7386Z" fill="white"/>
<path d="M58.5578 46.5424C58.0017 46.5424 57.4463 46.3298 57.022 45.9063L39.7765 28.6608C38.9287 27.813 38.9287 26.4378 39.7765 25.5891L57.022 8.34355C57.8706 7.49575 59.245 7.49575 60.0937 8.34355L75.3239 23.5738C76.1717 24.4216 76.1717 25.7968 75.3239 26.6455C74.4754 27.4933 73.1009 27.4941 72.2522 26.6455L58.5578 12.951L44.3839 27.1248L58.5578 41.2987L68.6035 31.2529C69.4521 30.4051 70.8265 30.4051 71.6752 31.2529C72.523 32.1007 72.523 33.4759 71.6752 34.3246L60.0937 45.9061C59.6694 46.3304 59.114 46.5422 58.5579 46.5422L58.5578 46.5424Z" fill="white"/>
<path d="M77.2458 30.7401C76.6695 30.7401 76.1172 30.5113 75.71 30.104L61.2431 15.6363C60.3953 14.7885 60.3953 13.4133 61.2431 12.5646C62.0909 11.7168 63.4661 11.7168 64.3148 12.5646L77.2459 25.4958L79.9111 22.8306L62.8519 5.77128L58.6509 9.97305C57.8023 10.8209 56.4279 10.8209 55.5792 9.97305C54.7314 9.12525 54.7314 7.75005 55.5792 6.90135L61.3161 1.16443C61.7234 0.757196 62.2756 0.528381 62.852 0.528381C63.4283 0.528381 63.9806 0.757196 64.3878 1.16443L84.519 21.2956C85.3668 22.1434 85.3668 23.5186 84.519 24.3673L78.782 30.1042C78.374 30.5115 77.8218 30.7403 77.2462 30.7403L77.2458 30.7401Z" fill="white"/>
<path d="M71.4743 47.986C70.898 47.986 70.3457 47.7572 69.9384 47.35L62.7589 40.1696C61.9111 39.3218 61.9111 37.9466 62.7589 37.0979L68.5129 31.3439C68.9201 30.9367 69.4724 30.7079 70.0487 30.7079C70.6251 30.7079 71.1773 30.9367 71.5846 31.3439L78.7649 38.5243C79.1721 38.9315 79.401 39.4838 79.401 40.0601C79.401 40.6364 79.1721 41.1887 78.7649 41.5959L73.0109 47.3499C72.6021 47.7572 72.0499 47.986 71.4743 47.986L71.4743 47.986ZM67.3656 38.6345L71.4737 42.7431L74.1568 40.06L70.0487 35.9514L67.3656 38.6345Z" fill="white"/>
<path d="M95.8988 75.2975C95.8786 75.2975 95.8585 75.2975 95.8383 75.2967C95.2418 75.2804 94.6779 75.019 94.28 74.5738L90.6793 70.5474C89.8796 69.6538 89.9564 68.2801 90.8507 67.4804C91.7443 66.6807 93.118 66.7575 93.9176 67.6511L95.9871 69.9656L101.379 64.5732L77.3119 43.0481L74.4628 45.8972L86.6789 59.5559C87.4786 60.4495 87.4018 61.8232 86.5075 62.6228C85.6139 63.4226 84.2402 63.3458 83.4405 62.4522L69.8555 47.2623C69.0876 46.4028 69.124 45.0935 69.9385 44.2783L75.6925 38.5243C76.5077 37.7099 77.817 37.6727 78.6756 38.4413L105.987 62.8656C106.432 63.2636 106.694 63.8275 106.71 64.424C106.726 65.0204 106.497 65.5983 106.075 66.0203L97.4353 74.6597C97.0281 75.0677 96.4751 75.2966 95.9003 75.2966L95.8988 75.2975Z" fill="white"/>
<path d="M104.539 92.6725H78.4762C77.277 92.6725 76.3042 91.6998 76.3042 90.5005C76.3042 89.3012 77.2769 88.3286 78.4762 88.3286H104.539C105.738 88.3286 106.711 89.3012 106.711 90.5005C106.711 91.6998 105.738 92.6725 104.539 92.6725ZM67.6163 92.6725H2.46104C1.26184 92.6725 0.289062 91.6998 0.289062 90.5005C0.289062 89.3012 1.26175 88.3286 2.46104 88.3286H67.6163C68.8155 88.3286 69.7883 89.3012 69.7883 90.5005C69.7883 91.6998 68.8156 92.6725 67.6163 92.6725Z" fill="white"/>
<path d="M67.6153 92.6725H6.80283C5.60364 92.6725 4.63086 91.6998 4.63086 90.5005V86.1568C4.63086 84.9576 5.60354 83.9848 6.80283 83.9848C8.00212 83.9848 8.97481 84.9575 8.97481 86.1568V88.3288H67.6149C68.8141 88.3288 69.7869 89.3014 69.7869 90.5007C69.7869 91.7 68.8142 92.6727 67.6149 92.6727L67.6153 92.6725ZM67.6153 84.2642C66.4161 84.2642 65.4433 83.2915 65.4433 82.0922V81.0528C65.4433 77.8797 62.8611 75.2974 59.688 75.2974H14.7294C13.0858 75.2974 11.5165 76.0033 10.4236 77.2335C9.62698 78.1302 8.25399 78.2116 7.35744 77.4158C6.46077 76.6192 6.37932 75.2462 7.17516 74.3496C9.09106 72.1918 11.8448 70.9537 14.7294 70.9537H59.688C65.2565 70.9537 69.7871 75.4843 69.7871 81.0528V82.0922C69.7871 83.2922 68.8144 84.2642 67.6151 84.2642L67.6153 84.2642Z" fill="white"/>
<path d="M56.7589 75.2975H17.6642C16.465 75.2975 15.4922 74.3248 15.4922 73.1255V69.8134C15.4922 64.4543 19.8522 60.0943 25.2113 60.0943H36.1017C37.3009 60.0943 38.2737 61.067 38.2737 62.2663C38.2737 63.4656 37.301 64.4382 36.1017 64.4382H25.2113C22.2474 64.4382 19.8359 66.8499 19.8359 69.8136V70.9538H54.5859V69.8136C54.5859 66.8497 52.1743 64.4382 49.2106 64.4382H46.9612C45.762 64.4382 44.7892 63.4656 44.7892 62.2663C44.7892 61.067 45.7619 60.0943 46.9612 60.0943H49.2106C54.5697 60.0943 58.9297 64.4543 58.9297 69.8134V73.1255C58.9297 74.3247 57.957 75.2975 56.7577 75.2975H56.7589Z" fill="white"/>
<path d="M17.664 49.235C14.071 49.235 11.1484 46.3123 11.1484 42.7195C11.1484 39.1268 14.0712 36.204 17.664 36.204C21.2567 36.204 24.1795 39.1268 24.1795 42.7195C24.1795 46.3117 21.2567 49.235 17.664 49.235V49.235ZM17.664 40.5475C16.4663 40.5475 15.492 41.5218 15.492 42.7195C15.492 43.9172 16.4662 44.8915 17.664 44.8915C18.8617 44.8915 19.8359 43.9172 19.8359 42.7195C19.8359 41.5218 18.8617 40.5475 17.664 40.5475Z" fill="white"/>
<path d="M95.8515 27.5153C92.2585 27.5153 89.3359 24.5925 89.3359 20.9997C89.3359 17.407 92.2587 14.4842 95.8515 14.4842C99.4442 14.4842 102.367 17.407 102.367 20.9997C102.367 24.5919 99.4442 27.5153 95.8515 27.5153ZM95.8515 18.8277C94.6538 18.8277 93.6795 19.802 93.6795 20.9997C93.6795 22.1975 94.6537 23.1717 95.8515 23.1717C97.0492 23.1717 98.0234 22.1975 98.0234 20.9997C98.0234 19.802 97.0492 18.8277 95.8515 18.8277Z" fill="white"/>
<path d="M54.587 83.985H6.80674C5.60755 83.985 4.63477 83.0123 4.63477 81.813C4.63477 80.6137 5.60745 79.6411 6.80674 79.6411H54.587C55.7862 79.6411 56.759 80.6137 56.759 81.813C56.759 83.0123 55.7863 83.985 54.587 83.985Z" fill="white"/>
</svg>
