<svg width="55" height="42" viewBox="0 0 55 42" fill="none" xmlns="http://www.w3.org/2000/svg">
<path d="M31.4572 4.13068C31.167 3.60338 30.5655 3.38565 30.0418 3.61876C29.5184 3.85145 29.2305 4.46476 29.3649 5.0614L40.8 35.4664H40.7997C40.8789 35.8175 41.0948 36.1137 41.3916 36.2779C41.6883 36.442 42.0359 36.4574 42.3441 36.3203C42.6523 36.1831 42.8901 35.9072 42.9954 35.5644C43.1007 35.2216 43.0631 34.846 42.8924 34.5356L31.4572 4.13068Z" fill="white"/>
<path d="M2.1737 32.6741C1.93134 32.0529 1.27628 31.7549 0.698511 32.0038C0.125744 32.2669 -0.148377 32.9778 0.0809529 33.6049L1.54467 37.4647C1.83488 37.9919 2.43636 38.2093 2.96007 37.9766C3.48344 37.7439 3.77135 37.1302 3.63736 36.5339L2.1737 32.6741Z" fill="white"/>
<path d="M28.9073 6.58691L2.28711 32.239L3.99086 36.8185L17.0608 36.0614L17.2439 39.7845C17.3066 40.3118 17.5574 40.7913 17.9422 41.1208C18.3266 41.4499 18.8147 41.6028 19.3021 41.5467L25.4884 41.1993H25.6144H25.614C26.0834 41.1802 26.5279 40.9658 26.856 40.6009C27.1837 40.2357 27.3694 39.7479 27.3751 39.2384L27.2036 35.5153L39.565 34.7956L28.9073 6.58691ZM9.69686 29.9807C9.54755 30.1344 9.35344 30.2267 9.14784 30.2412C8.76038 30.2449 8.41198 29.9865 8.27414 29.5934C8.13632 29.2003 8.23854 28.7557 8.53066 28.4789L23.7961 13.7355C24.1821 13.4184 24.7276 13.4779 25.0484 13.8714C25.3689 14.2649 25.3563 14.8599 25.0193 15.2372L9.69686 29.9807ZM25.4426 39.3877L19.2563 39.7226C19.1346 39.7397 19.0113 39.7044 18.9133 39.6238L18.7418 35.975L25.6026 35.5778L25.7742 39.3009C25.6762 39.3698 25.559 39.4006 25.4426 39.3877L25.4426 39.3877Z" fill="white"/>
<path d="M51.6182 11.6257C51.4114 11.1454 51.0404 10.7705 50.584 10.5807C50.1277 10.3908 49.6211 10.4007 49.1713 10.6081L43.3851 13.4623V13.4628C42.8763 13.6502 42.4643 14.0636 42.2519 14.5997C42.0398 15.1357 42.0466 15.7441 42.2714 16.2743C42.4961 16.8044 42.9173 17.2063 43.4303 17.38C43.9437 17.5537 44.5008 17.4831 44.9633 17.186L50.6806 14.3193V14.3189C51.132 14.0945 51.4835 13.6856 51.6592 13.1816C51.8346 12.6776 51.82 12.1187 51.6182 11.6259L51.6182 11.6257Z" fill="white"/>
<path d="M40.5142 10.31C40.9885 10.4974 41.5123 10.472 41.9695 10.2389C42.4266 10.0062 42.7792 9.58488 42.9496 9.06922L45.1794 2.60324C45.3486 1.93175 45.1939 1.21335 44.7682 0.692643C44.3424 0.171992 43.7031 -0.0798182 43.0686 0.0223971C42.4346 0.125032 41.8905 0.568397 41.6233 1.20082L39.405 7.6668C39.2274 8.17665 39.2446 8.74256 39.4529 9.2387C39.6612 9.73484 40.0429 10.1204 40.5142 10.3099L40.5142 10.31Z" fill="white"/>
<path d="M53.6522 22.8323L47.7059 20.4123H47.7063C47.075 20.1726 46.3739 20.3113 45.8613 20.7776C45.3483 21.2434 45.0994 21.968 45.2059 22.6844C45.3119 23.4012 45.758 24.0041 46.3798 24.2717L52.326 26.6793V26.6797C52.9593 26.9365 53.6706 26.8077 54.1925 26.341C54.7143 25.8744 54.967 25.1415 54.8556 24.4176C54.7442 23.6937 54.2855 23.0896 53.6523 22.8324L53.6522 22.8323Z" fill="white"/>
</svg>
