<svg width="139" height="92" viewBox="0 0 139 92" fill="none" xmlns="http://www.w3.org/2000/svg">
<path d="M16.9355 20.752L17.6215 24.6326C18.7769 24.4292 21.599 23.8466 22.8434 22.8517L20.3974 19.7647C20.016 20.0264 18.3659 20.498 16.9356 20.7519L16.9355 20.752Z" fill="white"/>
<path d="M134.461 14.8166C134.276 15.2355 133.577 16.3931 132.588 16.7174C131.945 16.9274 131.188 16.7757 130.283 16.2557C127.903 14.8914 126.231 15.296 125.245 15.8764C124.325 16.4184 123.733 17.2759 123.348 18.1806C119.172 14.7486 113.719 12.198 107.871 11.1032C106.697 10.8823 104.683 10.7756 101.712 10.7756C92.1718 10.7756 74.909 11.887 65.6325 12.4829C62.7467 12.6687 60.6273 12.8061 59.7445 12.8434C59.5873 12.85 59.3982 12.8533 59.1805 12.8533C54.3028 12.8533 36.3319 11.3659 30.2862 10.8536C30.2873 5.64384 26.2551 2.06885 26.0614 1.89859L25.0028 0.978455L23.788 1.67873C17.2032 5.46479 17.0678 11.1043 18.1583 14.4398C15.2692 17.0958 7.25411 18.9624 2.4642 19.5551L0.40625 19.8101L2.10031 29.4094L2.83906 29.8744C12.3297 35.8502 14.2445 36.7255 14.9976 36.853C15.2944 36.9695 16.0046 37.3158 16.64 37.6247C19.4169 38.9769 24.0627 41.2416 28.5942 41.9714C33.2828 42.7277 39.5995 46.66 41.563 47.943L44.9511 61.5011L9.0071 61.5V65.44H44.4418L42.9489 74.8966H49.3283L53.5762 73.4234L54.2171 69.7747H59.4148L59.594 68.0037C59.5973 67.9707 59.7061 66.9571 59.9831 65.4412H95.8821V61.5011L60.8893 61.5001C61.6918 58.6109 62.944 55.3646 64.8468 53.0628C69.6035 54.1325 74.2856 54.6843 78.8391 54.6843H78.8435C92.3234 54.6843 101.085 50.0253 104.257 48.0038L105.097 48.6898L107.03 56.8436L102.208 69.7761H111.451L114.646 60.9508L114.93 62.0842L111.855 73.914H120.044L123.193 70.1927L124.014 62.3996L127.126 55.1408L125.508 49.3836C128.161 46.799 130.118 42.2896 130.854 39.5842C132.338 34.1172 131.568 28.7458 128.624 24.0508C128.039 23.1174 127.356 22.2182 126.607 21.3497C126.699 20.3603 126.993 19.438 127.232 19.2841C127.232 19.2808 127.54 19.2269 128.322 19.6776C130.72 21.054 132.659 20.8594 133.864 20.4526C136.695 19.5006 137.953 16.6908 138.088 16.3719L134.461 14.8166ZM55.9167 65.834H54.9098L56.0366 59.4149L58.6321 51.3866C59.3335 51.6109 60.0348 51.8142 60.734 52.0143C57.7022 56.6117 56.3961 62.8198 55.9168 65.8339L55.9167 65.834ZM108.685 65.834H107.878L111.135 57.0965L110.113 52.7771L112.663 54.8538L108.685 65.834ZM127.048 38.5464C126.227 41.5597 124.114 45.682 122.127 47.0883L120.991 47.892L122.951 54.8638L120.153 61.3949L119.398 68.5736L118.213 69.9742H116.945L118.992 62.104L116.742 53.1017L106.28 44.5851L106.284 44.5807C103.97 42.6953 102.732 40.5692 102.497 38.0814C102.013 32.9827 106.012 28.1511 106.055 28.1016L103.045 25.5578C102.838 25.804 97.9489 31.6633 98.5711 38.4244C98.8009 40.9001 99.7386 43.1493 101.338 45.1533C98.0268 47.0838 90.2493 50.7467 78.8393 50.7479H78.8349C72.6193 50.7479 66.1245 49.654 59.5098 47.5213C59.7462 44.6169 59.7671 38.5651 56.6823 33.3179L53.2866 35.3165C56.4515 40.6988 55.5864 47.4883 55.4446 48.4369L52.2433 58.3354L50.0952 70.461L48.665 70.9568H47.5602L49.0366 61.608L45.0164 45.5269L44.4051 45.1047C44.0523 44.8607 35.6896 39.1266 29.219 38.0823C25.2635 37.4436 20.9433 35.3405 18.362 34.0829C16.9362 33.3881 16.2755 33.066 15.7061 32.9682C14.6254 32.4987 9.96969 29.6943 5.67369 27.0033L4.99652 23.1624C9.37526 22.4401 19.0271 20.381 22.0626 15.9178L22.72 14.9504L22.1857 13.9082C22.0846 13.7115 19.9464 9.40201 24.4581 5.94579C25.4617 7.221 26.7919 9.5174 26.1928 12.2152L25.7047 14.4105L27.944 14.6062C28.9697 14.6964 53.1462 16.7917 59.1798 16.7917C59.4634 16.7917 59.7097 16.7873 59.9141 16.7796C60.8112 16.74 62.9603 16.6026 65.8835 16.4135C75.1147 15.8199 92.2961 14.715 101.709 14.715C105.056 14.715 106.511 14.8557 107.142 14.9756C114.928 16.4355 121.88 20.7119 125.282 26.1382C127.662 29.9318 128.256 34.106 127.049 38.5463L127.048 38.5464Z" fill="white"/>
<path d="M23.3867 77.457H133.116V81.397H23.3867V77.457Z" fill="white"/>
<path d="M43.2832 87.11H93.9122V91.05H43.2832V87.11Z" fill="white"/>
<path d="M98.6406 87.11H120.704V91.05H98.6406V87.11Z" fill="white"/>
<path d="M116.879 28.0719C117.069 28.3072 121.507 33.8699 116.981 38.599L119.829 41.3243C125.351 35.5494 122.312 28.5038 119.932 25.5851L116.879 28.0719Z" fill="white"/>
<path d="M66.8549 42.3235L66.1601 44.1649L66.8604 42.3246L65.4609 46.0074C65.7875 46.1305 70.6046 47.9081 77.8669 47.9081C82.6061 47.9081 88.3853 47.1518 94.6338 44.6838L93.1871 41.0196C78.8376 46.689 66.9746 42.3674 66.855 42.3234L66.8549 42.3235Z" fill="white"/>
<path d="M42.2903 41.6677L32.5723 36.0206L34.5522 32.6139L44.2702 38.261L42.2903 41.6677Z" fill="white"/>
</svg>
